<?xml version="1.0" encoding="UTF-8"?>
<!DOCTYPE svg PUBLIC "-//W3C//DTD SVG 1.1//EN" "http://www.w3.org/Graphics/SVG/1.1/DTD/svg11.dtd">
<svg xmlns="http://www.w3.org/2000/svg" version="1.1" width="552px" height="452px" style="shape-rendering:geometricPrecision; text-rendering:geometricPrecision; image-rendering:optimizeQuality; fill-rule:evenodd; clip-rule:evenodd" xmlns:xlink="http://www.w3.org/1999/xlink">
<g><path style="opacity:1" fill="#091c3c" d="M 119.5,-0.5 C 119.833,-0.5 120.167,-0.5 120.5,-0.5C 121.5,0.833333 122.5,0.833333 123.5,-0.5C 123.833,-0.5 124.167,-0.5 124.5,-0.5C 124.833,0.833333 125.167,0.833333 125.5,-0.5C 125.833,-0.5 126.167,-0.5 126.5,-0.5C 128.833,0.833333 131.167,0.833333 133.5,-0.5C 133.833,-0.5 134.167,-0.5 134.5,-0.5C 134.833,0.833333 135.167,0.833333 135.5,-0.5C 136.167,-0.5 136.833,-0.5 137.5,-0.5C 138.5,0.833333 139.5,0.833333 140.5,-0.5C 140.833,-0.5 141.167,-0.5 141.5,-0.5C 150.167,0.833333 158.833,0.833333 167.5,-0.5C 167.833,-0.5 168.167,-0.5 168.5,-0.5C 177.167,0.833333 185.833,0.833333 194.5,-0.5C 194.833,-0.5 195.167,-0.5 195.5,-0.5C 213.5,0.833333 231.5,0.833333 249.5,-0.5C 250.167,-0.5 250.833,-0.5 251.5,-0.5C 254.833,0.833333 258.167,0.833333 261.5,-0.5C 261.833,-0.5 262.167,-0.5 262.5,-0.5C 265.882,1.0193 267.216,3.68597 266.5,7.5C 265.502,19.4707 263.502,31.1374 260.5,42.5C 258.872,48.2676 257.872,54.2676 257.5,60.5C 255.606,77.9424 252.606,94.9424 248.5,111.5C 246.974,123.993 244.807,136.326 242,148.5C 241.5,149 241,149.5 240.5,150C 225.833,150.667 211.167,150.667 196.5,150C 195.263,149.768 194.263,149.268 193.5,148.5C 193.217,147.711 192.717,147.044 192,146.5C 191.501,141.511 191.334,136.511 191.5,131.5C 191.5,131.167 191.5,130.833 191.5,130.5C 192.989,126.764 193.656,122.764 193.5,118.5C 194.347,108.267 196.347,98.2674 199.5,88.5C 193.957,86.9634 188.29,85.9634 182.5,85.5C 177.456,85.1597 172.622,85.493 168,86.5C 165.061,85.8719 162.228,85.2052 159.5,84.5C 144.339,83.3388 129.006,83.1721 113.5,84C 112.584,84.2784 111.918,84.7784 111.5,85.5C 106.934,88.5569 102.767,92.2235 99,96.5C 96.9408,102.305 96.1075,108.305 96.5,114.5C 95.7886,164.504 95.1219,214.671 94.5,265C 94.8333,268.167 95.1667,271.333 95.5,274.5C 97.9594,276.004 99.626,278.171 100.5,281C 102.387,280.577 104.387,280.744 106.5,281.5C 106.36,283.124 107.027,284.29 108.5,285C 110.81,285.497 113.143,285.663 115.5,285.5C 117.292,285.366 118.958,285.699 120.5,286.5C 151.833,286.5 183.167,286.5 214.5,286.5C 214.5,291.833 214.5,297.167 214.5,302.5C 212.817,317.307 210.484,331.974 207.5,346.5C 206.082,351.766 205.415,357.266 205.5,363C 205.502,366.352 205.835,369.518 206.5,372.5C 207.453,375.438 209.453,377.271 212.5,378C 211.542,379.147 211.875,380.147 213.5,381C 242.833,381.667 272.167,381.667 301.5,381C 305.665,379.355 308.998,376.188 311.5,371.5C 310.55,364.149 311.55,357.149 314.5,350.5C 315.407,348.343 316.073,346.01 316.5,343.5C 341.41,345.054 366.41,345.721 391.5,345.5C 410.167,345.333 428.833,345.167 447.5,345C 449.382,344.802 451.048,344.302 452.5,343.5C 452.833,343.5 453.167,343.5 453.5,343.5C 454.872,342.488 456.205,341.488 457.5,340.5C 458.328,334.681 458.828,328.681 459,322.5C 461.69,309.484 463.857,296.484 465.5,283.5C 467.099,283.768 468.432,283.434 469.5,282.5C 483.5,282.5 497.5,282.5 511.5,282.5C 511.322,279.784 510.822,277.117 510,274.5C 506.838,267.509 503.672,260.509 500.5,253.5C 499.258,249.345 497.258,245.678 494.5,242.5C 491.713,236.925 488.879,231.259 486,225.5C 483.561,222.161 481.061,219.661 478.5,218C 427.84,218.214 377.173,218.548 326.5,219C 318.629,222.283 314.629,227.616 314.5,235C 312.926,236.826 312.093,238.993 312,241.5C 309.917,257.58 307.417,273.58 304.5,289.5C 281.102,288.369 257.768,288.369 234.5,289.5C 235.631,274.714 237.631,260.047 240.5,245.5C 243.224,228.938 245.891,212.271 248.5,195.5C 249.913,192.781 250.58,189.781 250.5,186.5C 250.5,185.5 250.5,184.5 250.5,183.5C 251.117,183.389 251.617,183.056 252,182.5C 252.495,180.527 252.662,178.527 252.5,176.5C 253.764,163.919 255.764,151.586 258.5,139.5C 259.737,134.036 261.404,128.702 263.5,123.5C 264.923,112.833 266.59,102.499 268.5,92.5C 268.392,91.5581 268.059,90.7247 267.5,90C 269.088,85.7092 270.254,81.2092 271,76.5C 271.499,71.8452 271.666,67.1785 271.5,62.5C 271.753,58.9601 272.419,55.6267 273.5,52.5C 275.236,46.4112 276.236,40.0779 276.5,33.5C 278.388,24.5591 280.222,15.5591 282,6.5C 282.983,4.55159 284.15,2.71825 285.5,1C 285.272,0.601226 284.938,0.434559 284.5,0.5C 284.5,0.166667 284.5,-0.166667 284.5,-0.5C 285.5,-0.5 286.5,-0.5 287.5,-0.5C 287.833,0.833333 288.167,0.833333 288.5,-0.5C 340.167,-0.5 391.833,-0.5 443.5,-0.5C 444.568,0.434475 445.901,0.767809 447.5,0.5C 447.5,1.83333 447.5,3.16667 447.5,4.5C 447.5,7.16667 447.5,9.83333 447.5,12.5C 445.772,29.4344 443.105,46.101 439.5,62.5C 437.678,68.5737 436.678,74.907 436.5,81.5C 433.713,82.4767 430.713,82.81 427.5,82.5C 398.167,82.5 368.833,82.5 339.5,82.5C 339.058,86.1545 338.724,89.8212 338.5,93.5C 334.799,111.244 331.799,129.077 329.5,147C 331.727,147.704 332.06,148.871 330.5,150.5C 330.917,151.124 331.584,151.457 332.5,151.5C 360.806,150.107 389.139,149.607 417.5,150C 418.981,150.98 420.315,152.147 421.5,153.5C 422.489,157.107 422.823,160.774 422.5,164.5C 422.201,171.281 421.201,177.614 419.5,183.5C 418.957,183.56 418.624,183.893 418.5,184.5C 423.12,185.493 427.786,185.827 432.5,185.5C 438.833,186.833 445.167,186.833 451.5,185.5C 465.375,184.084 479.375,184.251 493.5,186C 499.569,188.01 503.903,191.844 506.5,197.5C 507.326,200.485 508.659,203.151 510.5,205.5C 516.024,216.074 521.358,226.741 526.5,237.5C 526.794,240.754 528.127,243.421 530.5,245.5C 531.319,247.772 531.985,250.106 532.5,252.5C 531.697,256.169 532.864,258.836 536,260.5C 537.092,263.044 537.759,265.711 538,268.5C 539.5,269.333 540.667,270.5 541.5,272C 541.694,273.43 541.694,274.93 541.5,276.5C 544.835,277.548 546.335,279.882 546,283.5C 548.147,285.479 549.647,287.813 550.5,290.5C 550.5,293.833 550.5,297.167 550.5,300.5C 549.503,317.992 549.17,335.659 549.5,353.5C 550.644,365.091 550.811,376.757 550,388.5C 548.006,396.494 543.173,401.994 535.5,405C 528.161,405.417 520.827,405.917 513.5,406.5C 511.304,406.495 509.304,406.162 507.5,405.5C 502.833,404.167 498.167,404.167 493.5,405.5C 493.611,406.117 493.944,406.617 494.5,407C 492.041,407.724 491.041,409.057 491.5,411C 484.64,431.026 471.307,444.526 451.5,451.5C 442.5,451.5 433.5,451.5 424.5,451.5C 420.784,449.595 416.784,448.261 412.5,447.5C 404.73,443.606 398.063,438.273 392.5,431.5C 392.262,429.596 391.262,428.262 389.5,427.5C 388.636,426.312 387.636,425.145 386.5,424C 386.833,423.667 387.167,423.333 387.5,423C 385.218,420.603 383.884,417.769 383.5,414.5C 383.218,411.09 382.551,407.757 381.5,404.5C 379.257,403.526 376.924,403.192 374.5,403.5C 320.833,402.167 267.167,402.167 213.5,403.5C 212.048,404.302 210.382,404.802 208.5,405C 209.833,406.84 209.666,407.34 208,406.5C 205.775,410.281 204.109,414.281 203,418.5C 201.951,420.618 200.451,422.284 198.5,423.5C 196.204,424.733 194.87,426.733 194.5,429.5C 194.611,430.117 194.944,430.617 195.5,431C 193.011,432.659 190.677,434.492 188.5,436.5C 185.5,438.5 182.5,440.5 179.5,442.5C 176.652,443.772 173.652,444.605 170.5,445C 169.748,445.671 169.414,446.504 169.5,447.5C 167.485,448.924 165.152,449.59 162.5,449.5C 160.219,449.077 158.552,449.744 157.5,451.5C 149.833,451.5 142.167,451.5 134.5,451.5C 133.71,450.599 132.71,449.932 131.5,449.5C 129.208,447.733 126.542,446.733 123.5,446.5C 116.554,442.691 109.554,438.858 102.5,435C 70.5,434.667 38.5,434.333 6.5,434C 3.59578,433.867 1.26244,432.7 -0.5,430.5C -0.5,426.833 -0.5,423.167 -0.5,419.5C -0.166667,419.5 0.166667,419.5 0.5,419.5C 2.19107,418.136 3.85774,416.803 5.5,415.5C 34.5019,415.667 63.5019,415.5 92.5,415C 93.2524,414.329 93.5858,413.496 93.5,412.5C 92.8902,411.609 92.5569,410.609 92.5,409.5C 92.0519,406.767 90.7186,404.601 88.5,403C 70.1697,402.5 51.8364,402.333 33.5,402.5C 28.1265,403.133 25.4598,400.467 25.5,394.5C 26.6266,389.352 29.7933,386.352 35,385.5C 44.7052,385.206 54.5386,385.539 64.5,386.5C 65.8178,378.072 65.8178,369.072 64.5,359.5C 63.6942,358.003 63.0276,356.336 62.5,354.5C 56.9804,351.987 51.9804,348.653 47.5,344.5C 30.1522,328.596 19.3188,308.929 15,285.5C 13.3626,221.857 13.0293,158.191 14,94.5C 15.0067,84.3361 17.5067,74.6695 21.5,65.5C 22.9313,64.2196 23.5979,62.5529 23.5,60.5C 28.2339,49.7693 34.9005,40.4359 43.5,32.5C 45.8333,30.8333 47.8333,28.8333 49.5,26.5C 58.3989,17.8812 68.7322,11.5479 80.5,7.5C 83.7846,7.07191 86.7846,6.07191 89.5,4.5C 93.2641,3.00848 97.2641,2.00848 101.5,1.5C 103.167,1.5 104.833,1.5 106.5,1.5C 110.993,1.02424 115.327,0.357568 119.5,-0.5 Z M 167.5,383.5 C 169.88,388.181 170.88,393.181 170.5,398.5C 168.866,401.768 167.199,405.101 165.5,408.5C 163.516,411.164 160.849,412.831 157.5,413.5C 157.167,412.167 156.833,412.167 156.5,413.5C 154.588,414.799 152.588,415.799 150.5,416.5C 131.403,414.939 124.07,404.939 128.5,386.5C 131.221,376.616 137.721,371.283 148,370.5C 157.21,371.006 163.71,375.339 167.5,383.5 Z M 456.5,390.5 C 456.647,395.214 456.314,399.881 455.5,404.5C 454.152,406.359 452.985,408.359 452,410.5C 451.184,411.823 450.017,412.489 448.5,412.5C 446.297,414.1 443.964,415.433 441.5,416.5C 435.566,417.111 429.9,416.278 424.5,414C 424.167,413 423.833,412 423.5,411C 422.563,410.308 421.897,410.475 421.5,411.5C 418.762,410.337 417.762,408.503 418.5,406C 417.333,405.5 416.5,404.667 416,403.5C 414.043,392.808 417.209,384.474 425.5,378.5C 434.63,372.57 443.13,373.57 451,381.5C 453.304,384.298 455.138,387.298 456.5,390.5 Z"/></g>
<g><path style="opacity:0.008" fill="#15083f" d="M 105.5,-0.5 C 105.833,-0.5 106.167,-0.5 106.5,-0.5C 106.5,0.166667 106.5,0.833333 106.5,1.5C 104.833,1.5 103.167,1.5 101.5,1.5C 102.833,0.833333 104.167,0.166667 105.5,-0.5 Z"/></g>
<g><path style="opacity:0.708" fill="#454e5d" d="M 282.5,-0.5 C 282.833,-0.5 283.167,-0.5 283.5,-0.5C 283.5,0.166667 283.833,0.5 284.5,0.5C 284.938,0.434559 285.272,0.601226 285.5,1C 284.15,2.71825 282.983,4.55159 282,6.5C 280.222,15.5591 278.388,24.5591 276.5,33.5C 277.527,21.2925 279.527,9.95915 282.5,-0.5 Z"/></g>
<g><path style="opacity:0.047" fill="#b1b5bc" d="M 89.5,4.5 C 86.7846,6.07191 83.7846,7.07191 80.5,7.5C 83.0836,5.52751 86.0836,4.52751 89.5,4.5 Z"/></g>
<g><path style="opacity:0.039" fill="#f3eef3" d="M 447.5,4.5 C 448.283,6.34324 448.95,8.34324 449.5,10.5C 449.145,11.5223 448.478,12.189 447.5,12.5C 447.5,9.83333 447.5,7.16667 447.5,4.5 Z"/></g>
<g><path style="opacity:0.086" fill="#939ba3" d="M 49.5,26.5 C 47.8333,28.8333 45.8333,30.8333 43.5,32.5C 44.5,29.5 46.5,27.5 49.5,26.5 Z"/></g>
<g><path style="opacity:0.18" fill="#939aa8" d="M 276.5,33.5 C 276.236,40.0779 275.236,46.4112 273.5,52.5C 273.764,45.9221 274.764,39.5888 276.5,33.5 Z"/></g>
<g><path style="opacity:0.125" fill="#abb8c1" d="M 260.5,42.5 C 260.804,43.1499 261.137,43.8165 261.5,44.5C 260.156,49.9533 258.823,55.2866 257.5,60.5C 257.872,54.2676 258.872,48.2676 260.5,42.5 Z"/></g>
<g><path style="opacity:0.031" fill="#d1d4db" d="M 23.5,60.5 C 23.5979,62.5529 22.9313,64.2196 21.5,65.5C 21.4021,63.4471 22.0687,61.7804 23.5,60.5 Z"/></g>
<g><path style="opacity:0.369" fill="#898f9e" d="M 439.5,62.5 C 439.341,67.1113 438.675,71.6113 437.5,76C 438.167,76.3333 438.833,76.6667 439.5,77C 438.103,78.3103 437.103,79.8103 436.5,81.5C 436.678,74.907 437.678,68.5737 439.5,62.5 Z"/></g>
<g><path style="opacity:0.62" fill="#545c70" d="M 427.5,82.5 C 398.67,83.3323 369.67,83.8323 340.5,84C 340.957,84.414 341.291,84.914 341.5,85.5C 340.246,88.1939 339.246,90.8606 338.5,93.5C 338.724,89.8212 339.058,86.1545 339.5,82.5C 368.833,82.5 398.167,82.5 427.5,82.5 Z"/></g>
<g><path style="opacity:0.471" fill="#5a6171" d="M 159.5,84.5 C 143.465,84.2119 127.465,84.5453 111.5,85.5C 111.918,84.7784 112.584,84.2784 113.5,84C 129.006,83.1721 144.339,83.3388 159.5,84.5 Z"/></g>
<g><path style="opacity:0.835" fill="#30394e" d="M 271.5,62.5 C 271.666,67.1785 271.499,71.8452 271,76.5C 270.254,81.2092 269.088,85.7092 267.5,90C 268.059,90.7247 268.392,91.5581 268.5,92.5C 266.59,102.499 264.923,112.833 263.5,123.5C 261.404,128.702 259.737,134.036 258.5,139.5C 262.573,113.983 266.906,88.3165 271.5,62.5 Z"/></g>
<g><path style="opacity:0.145" fill="#939cae" d="M 193.5,118.5 C 193.656,122.764 192.989,126.764 191.5,130.5C 191.539,126.267 192.205,122.267 193.5,118.5 Z"/></g>
<g><path style="opacity:0.906" fill="#5d6471" d="M 191.5,131.5 C 191.334,136.511 191.501,141.511 192,146.5C 192.717,147.044 193.217,147.711 193.5,148.5C 192.153,147.829 190.986,147.829 190,148.5C 189.5,147.5 189,146.5 188.5,145.5C 189.167,142.833 189.833,140.167 190.5,137.5C 190.291,136.914 189.957,136.414 189.5,136C 190.099,134.378 190.766,132.878 191.5,131.5 Z"/></g>
<g><path style="opacity:0.004" fill="#fefffe" d="M 346.5,147.5 C 347.833,148.167 347.833,148.167 346.5,147.5 Z"/></g>
<g><path style="opacity:0.552" fill="#636c7c" d="M 422.5,164.5 C 422.823,160.774 422.489,157.107 421.5,153.5C 420.315,152.147 418.981,150.98 417.5,150C 389.139,149.607 360.806,150.107 332.5,151.5C 331.584,151.457 330.917,151.124 330.5,150.5C 359.799,149.092 389.133,148.592 418.5,149C 420.788,149.822 423.122,150.489 425.5,151C 424.632,155.622 423.632,160.122 422.5,164.5 Z"/></g>
<g><path style="opacity:0.271" fill="#a1abb3" d="M 252.5,176.5 C 252.662,178.527 252.495,180.527 252,182.5C 251.617,183.056 251.117,183.389 250.5,183.5C 250.927,180.99 251.593,178.657 252.5,176.5 Z"/></g>
<g><path style="opacity:0.071" fill="#8c97a1" d="M 419.5,183.5 C 423.833,184.167 428.167,184.833 432.5,185.5C 427.786,185.827 423.12,185.493 418.5,184.5C 418.624,183.893 418.957,183.56 419.5,183.5 Z"/></g>
<g><path style="opacity:0.125" fill="#8c91a8" d="M 451.5,185.5 C 445.167,186.833 438.833,186.833 432.5,185.5C 437.878,185.398 443.045,185.398 448,185.5C 449.092,183.069 450.259,183.069 451.5,185.5 Z"/></g>
<g><path style="opacity:0.016" fill="#b3b4c7" d="M 250.5,186.5 C 250.58,189.781 249.913,192.781 248.5,195.5C 248.42,192.219 249.087,189.219 250.5,186.5 Z"/></g>
<g><path style="opacity:0.031" fill="#d1d4dc" d="M 506.5,197.5 C 508.873,199.579 510.206,202.246 510.5,205.5C 508.659,203.151 507.326,200.485 506.5,197.5 Z"/></g>
<g><path style="opacity:0.004" fill="#1f1f1f" d="M 456.5,219.5 C 457.601,218.402 458.934,218.235 460.5,219C 459.207,219.49 457.873,219.657 456.5,219.5 Z"/></g>
<g><path style="opacity:0.004" fill="#d2d2d2" d="M 461.5,219.5 C 461.897,218.475 462.563,218.308 463.5,219C 462.906,219.464 462.239,219.631 461.5,219.5 Z"/></g>
<g><path style="opacity:0.008" fill="#7f807f" d="M 465.5,218.5 C 466.833,219.167 466.833,219.167 465.5,218.5 Z"/></g>
<g><path style="opacity:0.004" fill="#000000" d="M 438.5,219.5 C 439.833,220.167 439.833,220.167 438.5,219.5 Z"/></g>
<g><path style="opacity:1" fill="#e72319" d="M 387.5,276.5 C 386.566,277.568 386.232,278.901 386.5,280.5C 395.5,280.5 404.5,280.5 413.5,280.5C 413.5,276.167 413.5,271.833 413.5,267.5C 413.183,263.298 413.517,259.298 414.5,255.5C 415.167,252.5 415.833,249.5 416.5,246.5C 416.58,257.977 416.08,269.31 415,280.5C 414.5,281 414,281.5 413.5,282C 404.5,282.667 395.5,282.667 386.5,282C 383.447,276.817 383.281,271.651 386,266.5C 386.095,258.083 386.929,249.75 388.5,241.5C 388.449,239.9 388.116,238.4 387.5,237C 369.17,236.5 350.836,236.333 332.5,236.5C 332.186,244.087 332.519,251.587 333.5,259C 331.986,260.439 331.653,261.939 332.5,263.5C 330.862,267.979 329.862,272.646 329.5,277.5C 329.833,278.167 330.167,278.833 330.5,279.5C 328.117,282.946 327.45,286.613 328.5,290.5C 327.175,293.202 325.842,296.368 324.5,300C 324.759,301.261 325.426,302.261 326.5,303C 324.458,304.941 323.792,307.108 324.5,309.5C 319.639,319.927 318.305,330.593 320.5,341.5C 364.828,342.5 409.162,342.833 453.5,342.5C 453.5,342.833 453.5,343.167 453.5,343.5C 453.167,343.5 452.833,343.5 452.5,343.5C 407.428,343.828 362.428,343.494 317.5,342.5C 317.5,340.167 317.5,337.833 317.5,335.5C 318.15,325.449 319.317,315.449 321,305.5C 324.682,289.263 327.515,272.93 329.5,256.5C 330.117,256.389 330.617,256.056 331,255.5C 331.82,248.986 331.653,242.653 330.5,236.5C 341.798,234.719 353.464,233.719 365.5,233.5C 373.993,234.401 382.326,234.734 390.5,234.5C 390.833,235.5 391.167,236.5 391.5,237.5C 389.572,250.444 388.239,263.444 387.5,276.5 Z"/></g>
<g><path style="opacity:1" fill="#fd0000" d="M 418.5,234.5 C 435.5,234.5 452.5,234.5 469.5,234.5C 470.939,235.988 471.605,237.822 471.5,240C 469.782,250.803 468.449,261.636 467.5,272.5C 467.5,272.833 467.5,273.167 467.5,273.5C 466.5,273.5 465.5,273.5 464.5,273.5C 463.163,281.511 461.83,289.511 460.5,297.5C 459.632,307.517 458.632,317.517 457.5,327.5C 456.834,331.684 456.167,336.018 455.5,340.5C 454.478,340.855 453.811,341.522 453.5,342.5C 409.162,342.833 364.828,342.5 320.5,341.5C 318.305,330.593 319.639,319.927 324.5,309.5C 323.792,307.108 324.458,304.941 326.5,303C 325.426,302.261 324.759,301.261 324.5,300C 325.842,296.368 327.175,293.202 328.5,290.5C 327.45,286.613 328.117,282.946 330.5,279.5C 330.167,278.833 329.833,278.167 329.5,277.5C 329.862,272.646 330.862,267.979 332.5,263.5C 331.653,261.939 331.986,260.439 333.5,259C 332.519,251.587 332.186,244.087 332.5,236.5C 350.836,236.333 369.17,236.5 387.5,237C 388.116,238.4 388.449,239.9 388.5,241.5C 386.929,249.75 386.095,258.083 386,266.5C 383.281,271.651 383.447,276.817 386.5,282C 395.5,282.667 404.5,282.667 413.5,282C 414,281.5 414.5,281 415,280.5C 416.08,269.31 416.58,257.977 416.5,246.5C 416.74,242.394 417.407,238.394 418.5,234.5 Z"/></g>
<g><path style="opacity:0.929" fill="#e24d41" d="M 469.5,234.5 C 471.167,234.5 472.833,234.5 474.5,234.5C 472.148,247.291 469.815,259.958 467.5,272.5C 468.449,261.636 469.782,250.803 471.5,240C 471.605,237.822 470.939,235.988 469.5,234.5 Z"/></g>
<g><path style="opacity:0.031" fill="#d3d9dc" d="M 526.5,237.5 C 528.341,239.849 529.674,242.515 530.5,245.5C 528.127,243.421 526.794,240.754 526.5,237.5 Z"/></g>
<g><path style="opacity:0.004" fill="#fefffe" d="M 240.5,245.5 C 239.475,245.103 239.308,244.437 240,243.5C 240.464,244.094 240.631,244.761 240.5,245.5 Z"/></g>
<g><path style="opacity:0.251" fill="#e4665a" d="M 418.5,234.5 C 417.407,238.394 416.74,242.394 416.5,246.5C 415.833,249.5 415.167,252.5 414.5,255.5C 414.955,248.773 414.955,242.106 414.5,235.5C 415.689,234.571 417.022,234.238 418.5,234.5 Z"/></g>
<g><path style="opacity:0.071" fill="#a2a4b4" d="M 494.5,242.5 C 497.258,245.678 499.258,249.345 500.5,253.5C 497.742,250.322 495.742,246.655 494.5,242.5 Z"/></g>
<g><path style="opacity:0.463" fill="#e98881" d="M 330.5,236.5 C 331.653,242.653 331.82,248.986 331,255.5C 330.617,256.056 330.117,256.389 329.5,256.5C 330.139,249.852 330.473,243.186 330.5,236.5 Z"/></g>
<g><path style="opacity:0.982" fill="#424a61" d="M 532.5,252.5 C 540.099,264.367 546.099,277.034 550.5,290.5C 549.647,287.813 548.147,285.479 546,283.5C 546.335,279.882 544.835,277.548 541.5,276.5C 541.694,274.93 541.694,273.43 541.5,272C 540.667,270.5 539.5,269.333 538,268.5C 537.759,265.711 537.092,263.044 536,260.5C 532.864,258.836 531.697,256.169 532.5,252.5 Z"/></g>
<g><path style="opacity:0.078" fill="#ecccc8" d="M 466.5,278.5 C 466.554,280.632 467.554,281.965 469.5,282.5C 468.432,283.434 467.099,283.768 465.5,283.5C 465.216,281.585 465.549,279.919 466.5,278.5 Z"/></g>
<g><path style="opacity:0.997" fill="#525692" d="M 96.5,114.5 C 96.3333,165.834 96.5,217.168 97,268.5C 96.812,272.232 98.312,275.066 101.5,277C 106.332,279.688 110.999,282.521 115.5,285.5C 113.143,285.663 110.81,285.497 108.5,285C 107.027,284.29 106.36,283.124 106.5,281.5C 104.387,280.744 102.387,280.577 100.5,281C 99.626,278.171 97.9594,276.004 95.5,274.5C 95.1667,271.333 94.8333,268.167 94.5,265C 95.1219,214.671 95.7886,164.504 96.5,114.5 Z"/></g>
<g><path style="opacity:0.083" fill="#ffafae" d="M 413.5,267.5 C 413.5,271.833 413.5,276.167 413.5,280.5C 404.5,280.5 395.5,280.5 386.5,280.5C 386.232,278.901 386.566,277.568 387.5,276.5C 387.5,277.5 387.5,278.5 387.5,279.5C 395.833,279.5 404.167,279.5 412.5,279.5C 412.183,275.298 412.517,271.298 413.5,267.5 Z"/></g>
<g><path style="opacity:0.973" fill="#d3382f" d="M 467.5,273.5 C 467.784,275.415 467.451,277.081 466.5,278.5C 465.549,279.919 465.216,281.585 465.5,283.5C 464.883,283.611 464.383,283.944 464,284.5C 463.285,289.081 462.118,293.414 460.5,297.5C 461.83,289.511 463.163,281.511 464.5,273.5C 465.5,273.5 466.5,273.5 467.5,273.5 Z"/></g>
<g><path style="opacity:0.364" fill="#7d8596" d="M 120.5,286.5 C 151.996,285.502 183.662,285.168 215.5,285.5C 215.227,287.451 215.893,288.951 217.5,290C 215.911,294.04 214.911,298.206 214.5,302.5C 214.5,297.167 214.5,291.833 214.5,286.5C 183.167,286.5 151.833,286.5 120.5,286.5 Z"/></g>
<g><path style="opacity:1" fill="#bd322d" d="M 304.5,289.5 C 305.139,290.097 305.472,290.93 305.5,292C 304.274,306.082 302.274,319.916 299.5,333.5C 300.44,319.823 301.44,306.156 302.5,292.5C 280.23,290.632 257.896,289.965 235.5,290.5C 235.712,294.345 234.712,297.679 232.5,300.5C 232.646,296.613 233.313,292.946 234.5,289.5C 257.768,288.369 281.102,288.369 304.5,289.5 Z"/></g>
<g><path style="opacity:1" fill="#fc0101" d="M 299.5,333.5 C 298.104,336.687 296.937,340.02 296,343.5C 295.501,347.486 295.334,351.486 295.5,355.5C 294.542,355.953 293.708,356.619 293,357.5C 292.565,362.184 292.065,366.851 291.5,371.5C 286.5,371.5 281.5,371.5 276.5,371.5C 258.485,371.7 240.485,371.366 222.5,370.5C 222.5,364.167 222.5,357.833 222.5,351.5C 223.693,351.03 224.36,350.03 224.5,348.5C 225.461,338.191 227.628,328.191 231,318.5C 232.131,312.888 232.631,307.221 232.5,301.5C 232.5,301.167 232.5,300.833 232.5,300.5C 234.712,297.679 235.712,294.345 235.5,290.5C 257.896,289.965 280.23,290.632 302.5,292.5C 301.44,306.156 300.44,319.823 299.5,333.5 Z"/></g>
<g><path style="opacity:1" fill="#3d1328" d="M 465.5,283.5 C 463.857,296.484 461.69,309.484 459,322.5C 458.828,328.681 458.328,334.681 457.5,340.5C 457.5,336.167 457.5,331.833 457.5,327.5C 458.632,317.517 459.632,307.517 460.5,297.5C 462.118,293.414 463.285,289.081 464,284.5C 464.383,283.944 464.883,283.611 465.5,283.5 Z"/></g>
<g><path style="opacity:0.012" fill="#cccfda" d="M 550.5,300.5 C 550.833,300.5 551.167,300.5 551.5,300.5C 551.5,301.167 551.5,301.833 551.5,302.5C 550.167,302.833 550.167,303.167 551.5,303.5C 551.5,306.833 551.5,310.167 551.5,313.5C 550.167,313.833 550.167,314.167 551.5,314.5C 551.5,314.833 551.5,315.167 551.5,315.5C 550.833,328.167 550.167,340.833 549.5,353.5C 549.17,335.659 549.503,317.992 550.5,300.5 Z"/></g>
<g><path style="opacity:1" fill="#8e0d1a" d="M 457.5,327.5 C 457.5,331.833 457.5,336.167 457.5,340.5C 456.205,341.488 454.872,342.488 453.5,343.5C 453.5,343.167 453.5,342.833 453.5,342.5C 453.811,341.522 454.478,340.855 455.5,340.5C 456.167,336.018 456.834,331.684 457.5,327.5 Z"/></g>
<g><path style="opacity:1" fill="#8e0f1e" d="M 316.5,343.5 C 316.5,342.833 316.833,342.5 317.5,342.5C 362.428,343.494 407.428,343.828 452.5,343.5C 451.048,344.302 449.382,344.802 447.5,345C 428.833,345.167 410.167,345.333 391.5,345.5C 366.41,345.721 341.41,345.054 316.5,343.5 Z"/></g>
<g><path style="opacity:0.671" fill="#eb615b" d="M 299.5,333.5 C 298.784,341.071 297.45,348.405 295.5,355.5C 295.334,351.486 295.501,347.486 296,343.5C 296.937,340.02 298.104,336.687 299.5,333.5 Z"/></g>
<g><path style="opacity:0.424" fill="#b38b95" d="M 317.5,335.5 C 317.5,337.833 317.5,340.167 317.5,342.5C 316.833,342.5 316.5,342.833 316.5,343.5C 316.073,346.01 315.407,348.343 314.5,350.5C 314.714,348.856 314.38,347.356 313.5,346C 315.616,342.716 316.949,339.216 317.5,335.5 Z"/></g>
<g><path style="opacity:0.004" fill="#fefffe" d="M 207.5,346.5 C 208.833,347.167 208.833,347.167 207.5,346.5 Z"/></g>
<g><path style="opacity:0.894" fill="#e24f46" d="M 232.5,301.5 C 232.631,307.221 232.131,312.888 231,318.5C 227.628,328.191 225.461,338.191 224.5,348.5C 224.36,350.03 223.693,351.03 222.5,351.5C 223.266,345.168 224.099,338.835 225,332.5C 228.32,322.225 230.82,311.892 232.5,301.5 Z"/></g>
<g><path style="opacity:0.004" fill="#000000" d="M 60.5,354.5 C 61.8333,355.167 61.8333,355.167 60.5,354.5 Z"/></g>
<g><path style="opacity:0.62" fill="#e46c5c" d="M 295.5,355.5 C 294.697,361.167 293.697,366.5 292.5,371.5C 287.248,372.823 281.915,373.49 276.5,373.5C 276.5,372.833 276.5,372.167 276.5,371.5C 281.5,371.5 286.5,371.5 291.5,371.5C 292.065,366.851 292.565,362.184 293,357.5C 293.708,356.619 294.542,355.953 295.5,355.5 Z"/></g>
<g><path style="opacity:0.004" fill="#000000" d="M 206.5,372.5 C 206.369,371.761 206.536,371.094 207,370.5C 207.692,371.437 207.525,372.103 206.5,372.5 Z"/></g>
<g><path style="opacity:0.878" fill="#ea3e35" d="M 222.5,351.5 C 222.5,357.833 222.5,364.167 222.5,370.5C 240.485,371.366 258.485,371.7 276.5,371.5C 276.5,372.167 276.5,372.833 276.5,373.5C 257.813,373.753 239.146,373.42 220.5,372.5C 220.112,365.253 220.779,358.253 222.5,351.5 Z"/></g>
<g><path style="opacity:0.078" fill="#d0d4dd" d="M 64.5,359.5 C 65.8178,369.072 65.8178,378.072 64.5,386.5C 64.3785,377.715 64.3785,368.715 64.5,359.5 Z"/></g>
<g><path style="opacity:0.184" fill="#9ea7b2" d="M 167.5,383.5 C 169.825,384.655 170.992,386.655 171,389.5C 171.805,392.696 171.638,395.696 170.5,398.5C 170.88,393.181 169.88,388.181 167.5,383.5 Z"/></g>
<g><path style="opacity:0.047" fill="#a2a8b7" d="M 456.5,390.5 C 457.162,392.304 457.495,394.304 457.5,396.5C 457.713,399.527 457.047,402.193 455.5,404.5C 456.314,399.881 456.647,395.214 456.5,390.5 Z"/></g>
<g><path style="opacity:0.055" fill="#8e8fa7" d="M 33.5,402.5 C 51.8364,402.333 70.1697,402.5 88.5,403C 90.7186,404.601 92.0519,406.767 92.5,409.5C 91.0448,407.108 89.0448,405.275 86.5,404C 68.6619,403.832 50.9953,403.332 33.5,402.5 Z"/></g>
<g><path style="opacity:0.125" fill="#8b92a3" d="M 213.5,403.5 C 267.167,402.167 320.833,402.167 374.5,403.5C 320.912,404.144 267.245,404.144 213.5,403.5 Z"/></g>
<g><path style="opacity:0.171" fill="#8f96a3" d="M 493.5,405.5 C 498.167,404.167 502.833,404.167 507.5,405.5C 506.778,405.918 506.278,406.584 506,407.5C 505.667,406.833 505.333,406.167 505,405.5C 501.318,405.719 497.484,405.719 493.5,405.5 Z"/></g>
<g><path style="opacity:0.263" fill="#767b89" d="M 374.5,403.5 C 376.924,403.192 379.257,403.526 381.5,404.5C 382.551,407.757 383.218,411.09 383.5,414.5C 382.535,411.839 381.202,409.339 379.5,407C 379.957,406.586 380.291,406.086 380.5,405.5C 378.369,404.831 376.369,404.165 374.5,403.5 Z"/></g>
<g><path style="opacity:0.024" fill="#d7d7d9" d="M 93.5,412.5 C 93.5858,413.496 93.2524,414.329 92.5,415C 63.5019,415.5 34.5019,415.667 5.5,415.5C 33.9971,414.668 62.6637,414.168 91.5,414C 92.0442,413.283 92.7109,412.783 93.5,412.5 Z"/></g>
<g><path style="opacity:1" fill="#697683" d="M 421.5,411.5 C 421.897,410.475 422.563,410.308 423.5,411C 423.833,412 424.167,413 424.5,414C 429.9,416.278 435.566,417.111 441.5,416.5C 436.767,417.19 431.934,417.856 427,418.5C 425.333,416.372 423.166,415.039 420.5,414.5C 420.863,413.817 421.196,413.15 421.5,412.5C 422.833,412.167 422.833,411.833 421.5,411.5 Z"/></g>
<g><path style="opacity:0.714" fill="#515a68" d="M 165.5,408.5 C 165.16,410.679 164.16,412.512 162.5,414C 158.759,415.998 154.759,416.831 150.5,416.5C 152.588,415.799 154.588,414.799 156.5,413.5C 156.833,414.833 157.167,414.833 157.5,413.5C 160.849,412.831 163.516,411.164 165.5,408.5 Z"/></g>
<g><path style="opacity:0.125" fill="#bcc0ca" d="M 5.5,415.5 C 3.85774,416.803 2.19107,418.136 0.5,419.5C 0.966592,416.703 2.63326,415.369 5.5,415.5 Z"/></g>
<g><path style="opacity:0.114" fill="#a8acb9" d="M 198.5,423.5 C 197.649,425.882 196.316,427.882 194.5,429.5C 194.87,426.733 196.204,424.733 198.5,423.5 Z"/></g>
<g><path style="opacity:0.004" fill="#d7d9dc" d="M 389.5,427.5 C 391.262,428.262 392.262,429.596 392.5,431.5C 390.738,430.738 389.738,429.404 389.5,427.5 Z"/></g>
<g><path style="opacity:0.008" fill="#7f807f" d="M 188.5,436.5 C 189.833,437.167 189.833,437.167 188.5,436.5 Z"/></g>
<g><path style="opacity:0.608" fill="#626b7b" d="M 179.5,442.5 C 176.753,445.207 173.42,446.873 169.5,447.5C 169.414,446.504 169.748,445.671 170.5,445C 173.652,444.605 176.652,443.772 179.5,442.5 Z"/></g>
<g><path style="opacity:0.039" fill="#c8d3e0" d="M 123.5,446.5 C 126.542,446.733 129.208,447.733 131.5,449.5C 128.458,449.267 125.792,448.267 123.5,446.5 Z"/></g>
<g><path style="opacity:0.035" fill="#c7ccd6" d="M 412.5,447.5 C 416.784,448.261 420.784,449.595 424.5,451.5C 422.833,451.5 421.167,451.5 419.5,451.5C 417.167,450.167 414.833,448.833 412.5,447.5 Z"/></g>
<g><path style="opacity:0.035" fill="#e5e8f8" d="M 162.5,449.5 C 161.167,450.167 159.833,450.833 158.5,451.5C 158.167,451.5 157.833,451.5 157.5,451.5C 158.552,449.744 160.219,449.077 162.5,449.5 Z"/></g>
</svg>
